<svg width="22" height="22" viewBox="0 0 22 22" fill="currentColor" xmlns="http://www.w3.org/2000/svg">
<path d="M14.1426 13.3203C14.1426 12.9061 14.4784 12.5704 14.8926 12.5703C15.3068 12.5703 15.6426 12.9061 15.6426 13.3203C15.6426 13.936 15.3982 14.5266 14.9629 14.9619C14.5276 15.3972 13.937 15.6416 13.3213 15.6416C12.9071 15.6416 12.5713 15.3058 12.5713 14.8916C12.5714 14.4775 12.9071 14.1416 13.3213 14.1416C13.539 14.1416 13.7483 14.0555 13.9023 13.9014C14.0564 13.7473 14.1426 13.5381 14.1426 13.3203Z"/>
<path d="M9.39307 14.1406C9.80716 14.1408 10.1431 14.4765 10.1431 14.8906C10.1431 15.3047 9.80716 15.6405 9.39307 15.6406H7.03564C6.62143 15.6406 6.28564 15.3048 6.28564 14.8906C6.28564 14.4764 6.62143 14.1406 7.03564 14.1406H9.39307Z"/>
<path d="M14.1431 9.39258V7.03516C14.1431 6.62094 14.4789 6.28516 14.8931 6.28516C15.3073 6.28516 15.6431 6.62094 15.6431 7.03516V9.39258C15.6429 9.80667 15.3072 10.1426 14.8931 10.1426C14.4789 10.1426 14.1432 9.80667 14.1431 9.39258Z"/>
<path d="M6.28564 8.60645C6.28568 7.99082 6.53001 7.40016 6.96533 6.96484C7.40065 6.52952 7.9913 6.28519 8.60693 6.28516C9.02115 6.28516 9.35693 6.62094 9.35693 7.03516C9.35693 7.44937 9.02115 7.78516 8.60693 7.78516C8.38912 7.78519 8.17989 7.87138 8.02588 8.02539C7.87187 8.1794 7.78568 8.38864 7.78564 8.60645C7.78564 9.02066 7.44986 9.35645 7.03564 9.35645C6.62143 9.35645 6.28564 9.02066 6.28564 8.60645Z"/>
<path d="M14.1426 2.32129C14.1425 2.10342 14.0563 1.8942 13.9023 1.74023C13.7483 1.58629 13.5391 1.5 13.3213 1.5H2.32129C2.10349 1.50004 1.89425 1.58622 1.74023 1.74023C1.58622 1.89425 1.50004 2.10349 1.5 2.32129V13.3213C1.5 13.5391 1.58623 13.7483 1.74023 13.9023C1.89429 14.0564 2.10354 14.1425 2.32129 14.1426H7.03613C7.45006 14.1428 7.78599 14.4786 7.78613 14.8926V19.6074C7.78621 19.8252 7.87239 20.0345 8.02637 20.1885C8.18034 20.3423 8.38961 20.4287 8.60742 20.4287H19.6074C19.8253 20.4286 20.0346 20.3424 20.1885 20.1885C20.3424 20.0346 20.4286 19.8253 20.4287 19.6074V8.60742C20.4287 8.38961 20.3423 8.18034 20.1885 8.02637C20.0345 7.87239 19.8252 7.78621 19.6074 7.78613H14.8926C14.4786 7.78599 14.1428 7.45007 14.1426 7.03613V2.32129ZM15.6426 6.28613H19.6074C20.223 6.28621 20.8137 6.53053 21.249 6.96582C21.6843 7.4012 21.9287 7.99194 21.9287 8.60742V19.6074C21.9286 20.2229 21.6844 20.8137 21.249 21.249C20.8137 21.6844 20.2229 21.9286 19.6074 21.9287H8.60742C7.99194 21.9287 7.4012 21.6843 6.96582 21.249C6.53053 20.8137 6.28621 20.223 6.28613 19.6074V15.6426H2.32129C1.70561 15.6425 1.11497 15.3982 0.679688 14.9629C0.244432 14.5276 0 13.937 0 13.3213V2.32129C3.57354e-05 1.70567 0.244364 1.11501 0.679688 0.679688C1.11501 0.244365 1.70566 3.54199e-05 2.32129 0H13.3213C13.9369 0 14.5275 0.244426 14.9629 0.679688C15.3983 1.11506 15.6425 1.70574 15.6426 2.32129V6.28613Z"/>
<path d="M14.8931 6.28516C15.3072 6.28528 15.6431 6.62102 15.6431 7.03516C15.6431 7.4493 15.3072 7.78504 14.8931 7.78516H12.5356C12.1214 7.78516 11.7856 7.44937 11.7856 7.03516C11.7856 6.62094 12.1214 6.28516 12.5356 6.28516H14.8931Z"/>
<path d="M6.28564 14.8926V12.5352C6.28564 12.1209 6.62143 11.7852 7.03564 11.7852C7.44986 11.7852 7.78564 12.1209 7.78564 12.5352V14.8926C7.78552 15.3067 7.44978 15.6426 7.03564 15.6426C6.62151 15.6426 6.28576 15.3067 6.28564 14.8926Z"/>
</svg>
