<svg xmlns="http://www.w3.org/2000/svg" width="80" height="80" viewBox="0 0 80 80" fill="none"><foreignObject x="-14" y="-14" width="107.692" height="107.692"></foreignObject><circle data-figma-bg-blur-radius="14" cx="39.8462" cy="39.8462" r="39.8462" fill="#0D0D0D"></circle><circle cx="40" cy="40" r="25" fill="#FED403"></circle><mask id="mask0_453_55" style="mask-type:alpha" maskUnits="userSpaceOnUse" x="15" y="15" width="50" height="50"><circle cx="40" cy="40" r="25" fill="#E4ED64"></circle></mask><g mask="url(#mask0_453_55)"><path d="M43.501 41.001C43.501 36.8588 40.1431 33.501 36.001 33.501C31.8588 33.501 28.501 36.8588 28.501 41.001V65.501H43.501V41.001ZM46.001 68.001H26.001V41.001C26.001 35.4781 30.4781 31.001 36.001 31.001C41.5238 31.001 46.001 35.4781 46.001 41.001V68.001Z" fill="#0D0D0D"></path><path d="M51.5012 41.001C51.5012 36.8588 48.1434 33.501 44.0012 33.501C39.8591 33.501 36.5012 36.8588 36.5012 41.001V65.501H51.5012V41.001ZM54.0012 68.001H34.0012V41.001C34.0012 35.4781 38.4784 31.001 44.0012 31.001C49.5241 31.001 54.0012 35.4781 54.0012 41.001V68.001Z" fill="#0D0D0D"></path><path d="M41.0002 26.0684C41.0002 25.4358 40.5104 25 40.0002 25C39.4901 25 39.0002 25.4358 39.0002 26.0684C39.0003 26.7008 39.4901 27.1367 40.0002 27.1367V29.1367L39.8459 29.1328C38.3118 29.0533 37.0817 27.7947 37.0042 26.2256L37.0002 26.0684C37.0002 24.3738 38.3434 23 40.0002 23C41.6571 23 43.0002 24.3738 43.0002 26.0684L42.9963 26.2256C42.9162 27.8469 41.6055 29.1367 40.0002 29.1367V27.1367C40.5103 27.1367 41.0002 26.7008 41.0002 26.0684Z" fill="#0D0D0D"></path></g><defs><clipPath id="bgblur_0_453_55_clip_path" transform="translate(14 14)"><circle cx="39.8462" cy="39.8462" r="39.8462"></circle></clipPath></defs></svg>