<svg width="18" height="18" viewBox="0 0 18 18" fill="none" xmlns="http://www.w3.org/2000/svg">
<path d="M14.5059 0.113041C14.8391 -0.00741632 15.1996 -0.0328453 15.5459 0.042728C15.8976 0.119513 16.2201 0.295984 16.4746 0.550541C16.7291 0.805097 16.9048 1.12754 16.9815 1.47925L17.0059 1.61206C17.0498 1.91672 17.0171 2.22772 16.9121 2.51831L12.501 15.7429C12.3999 16.0487 12.2221 16.3235 11.9844 16.5408C11.7464 16.758 11.4558 16.9111 11.1416 16.9841L11.1406 16.9832C10.8289 17.0586 10.5028 17.0528 10.1944 16.9646C9.88375 16.8758 9.60149 16.7073 9.37599 16.4763L6.95314 14.0642L4.39357 15.3884C4.23664 15.4696 4.04822 15.4616 3.89846 15.3679C3.7487 15.2741 3.65959 15.1081 3.66408 14.9314L3.76857 10.8689L0.543964 7.64429C0.326609 7.42709 0.16647 7.15931 0.0781435 6.86499C-0.010153 6.57065 -0.0238007 6.25878 0.0381045 5.95777C0.0991599 5.63261 0.245056 5.32878 0.460956 5.07788C0.679327 4.8242 0.961551 4.63335 1.27834 4.52515L14.5059 0.113041ZM15.332 1.02027C15.1675 0.984401 14.9959 0.995733 14.8379 1.05445C14.8327 1.05639 14.8276 1.05854 14.8223 1.06031L1.6006 5.47046L1.60158 5.47144C1.45328 5.52209 1.32101 5.61144 1.21877 5.73023C1.11656 5.849 1.04755 5.99303 1.01955 6.14722L1.0176 6.15894C0.989016 6.29778 0.995418 6.4421 1.03615 6.57788C1.07691 6.7135 1.1508 6.83717 1.251 6.93726L4.62795 10.3142C4.72483 10.4111 4.77795 10.5434 4.77443 10.6804L4.68459 14.1111L6.8174 13.0085C7.01042 12.9087 7.24641 12.9451 7.40041 13.0984L10.0869 15.7732L10.0918 15.7781C10.1699 15.858 10.2625 15.9215 10.3643 15.9656L10.4697 16.0037L10.5781 16.0271C10.6879 16.0435 10.8007 16.0382 10.9092 16.0115L10.9151 16.0095L11.0235 15.9773C11.1287 15.938 11.2259 15.8789 11.3096 15.8025C11.421 15.7007 11.5045 15.5719 11.5518 15.4285V15.4265L15.9639 2.20288L15.9697 2.18628C16.0284 2.02836 16.0408 1.85667 16.0049 1.69214C15.969 1.52763 15.8867 1.37671 15.7676 1.25757C15.6484 1.1384 15.4968 1.05621 15.332 1.02027Z" fill="#FED403"/>
<path d="M15.7245 0.472573C15.9366 0.29577 16.2527 0.323929 16.4295 0.53605C16.6062 0.748141 16.5771 1.06336 16.3651 1.24015L4.59556 11.0507C4.38344 11.2275 4.06827 11.1984 3.89146 10.9862C3.71477 10.7741 3.74286 10.4589 3.95494 10.2821L15.7245 0.472573Z" fill="#FED403"/>
</svg>
